<svg width="22" height="20" viewBox="0 0 22 20" fill="none" xmlns="http://www.w3.org/2000/svg">
    <path fill-rule="evenodd" clip-rule="evenodd"
        d="M0.539062 7.38465C0.539062 7.03783 0.676837 6.70521 0.922077 6.45998C1.16732 6.21474 1.49993 6.07696 1.84675 6.07696H15.3264C15.6733 6.07696 16.0059 6.21474 16.2511 6.45998C16.4964 6.70521 16.6341 7.03783 16.6341 7.38465C16.6341 7.73147 16.4964 8.06409 16.2511 8.30933C16.0059 8.55457 15.6733 8.69235 15.3264 8.69235H1.84675C1.49993 8.69235 1.16732 8.55457 0.922077 8.30933C0.676837 8.06409 0.539062 7.73147 0.539062 7.38465ZM0.539062 2.15388C0.539062 1.80706 0.676837 1.47445 0.922077 1.22921C1.16732 0.983966 1.49993 0.846191 1.84675 0.846191H20.1544C20.5013 0.846191 20.8339 0.983966 21.0791 1.22921C21.3244 1.47445 21.4621 1.80706 21.4621 2.15388C21.4621 2.50071 21.3244 2.83332 21.0791 3.07856C20.8339 3.3238 20.5013 3.46158 20.1544 3.46158H1.84675C1.49993 3.46158 1.16732 3.3238 0.922077 3.07856C0.676837 2.83332 0.539062 2.50071 0.539062 2.15388ZM0.539062 12.6154C0.539062 12.2686 0.676837 11.936 0.922077 11.6907C1.16732 11.4455 1.49993 11.3077 1.84675 11.3077H20.1544C20.5013 11.3077 20.8339 11.4455 21.0791 11.6907C21.3244 11.936 21.4621 12.2686 21.4621 12.6154C21.4621 12.9622 21.3244 13.2949 21.0791 13.5401C20.8339 13.7853 20.5013 13.9231 20.1544 13.9231H1.84675C1.49993 13.9231 1.16732 13.7853 0.922077 13.5401C0.676837 13.2949 0.539062 12.9622 0.539062 12.6154ZM0.539062 17.8462C0.539062 17.4994 0.676837 17.1668 0.922077 16.9215C1.16732 16.6763 1.49993 16.5385 1.84675 16.5385H15.3264C15.6733 16.5385 16.0059 16.6763 16.2511 16.9215C16.4964 17.1668 16.6341 17.4994 16.6341 17.8462C16.6341 18.193 16.4964 18.5256 16.2511 18.7709C16.0059 19.0161 15.6733 19.1539 15.3264 19.1539H1.84675C1.49993 19.1539 1.16732 19.0161 0.922077 18.7709C0.676837 18.5256 0.539062 18.193 0.539062 17.8462Z"
        fill="white" />
</svg>